<?xml version="1.0" encoding="UTF-8"?>
<svg version="1.1" xmlns="http://www.w3.org/2000/svg" width="1024" height="1024">
<path d="M0 0 C337.92 0 675.84 0 1024 0 C1024 337.92 1024 675.84 1024 1024 C686.08 1024 348.16 1024 0 1024 C0 686.08 0 348.16 0 0 Z " fill="#FEFEFE" transform="translate(0,0)"/>
<path d="M0 0 C337.92 0 675.84 0 1024 0 C1024 337.92 1024 675.84 1024 1024 C686.08 1024 348.16 1024 0 1024 C0 686.08 0 348.16 0 0 Z M453 70 C452.20404419 70.09997284 451.40808838 70.19994568 450.5880127 70.302948 C373.69720367 80.0349344 298.8553585 112.13529904 238.56835938 160.73583984 C237.08677157 161.93005866 235.59827785 163.11569506 234.109375 164.30078125 C227.68761055 169.46571466 221.59026868 174.93627832 215.56347656 180.54980469 C213.97452226 182.02363176 212.37553701 183.4857931 210.7734375 184.9453125 C200.67928055 194.15758746 190.84794504 203.56679814 182 214 C181.154375 214.95648438 180.30875 215.91296875 179.4375 216.8984375 C159.03202252 240.07193817 141.76365413 265.92378029 127 293 C126.31478271 294.2370166 126.31478271 294.2370166 125.61572266 295.49902344 C102.15717334 337.95891455 87.51016064 385.03759919 79.875 432.8125 C79.71628418 433.78219727 79.55756836 434.75189453 79.39404297 435.75097656 C76.32183364 455.72195245 75.62520235 475.70001221 75.6875 495.875 C75.68899048 497.07489563 75.69048096 498.27479126 75.6920166 499.51104736 C75.73505343 518.84903699 76.47742313 537.8200996 79 557 C79.12858398 558.05429199 79.25716797 559.10858398 79.38964844 560.19482422 C84.2619446 599.32816474 96.31376541 639.31283486 113 675 C113.43747559 675.9580957 113.87495117 676.91619141 114.32568359 677.90332031 C121.61787608 693.85641712 129.90939688 709.00691454 139 724 C139.87266443 725.46338153 140.74508485 726.92690861 141.6171875 728.390625 C148.06653653 739.08471863 155.44389445 749.06748385 163 759 C163.49145508 759.64743164 163.98291016 760.29486328 164.48925781 760.96191406 C177.56320125 778.10371377 192.05125268 794.10213827 207.25 809.375 C208.2241687 810.35617798 208.2241687 810.35617798 209.21801758 811.35717773 C213.6489549 815.77348593 218.26042241 819.91917236 223 824 C224.04802307 824.9257853 225.09497228 825.85278829 226.140625 826.78125 C268.18476195 863.72320489 318.22183529 891.78362663 371 910 C372.04510742 910.36077637 373.09021484 910.72155273 374.16699219 911.09326172 C400.06391452 919.92231304 426.11792613 925.81917339 453.18603516 929.48291016 C455.69796241 929.82347231 458.20817179 930.17699534 460.71630859 930.54443359 C477.4151956 932.93439434 494.02105006 933.18654325 510.86352539 933.18530273 C514.16500841 933.18748513 517.46615394 933.20570481 520.76757812 933.22460938 C534.62099573 933.26169655 548.23676138 932.58032633 562 931 C563.90881958 930.78089966 563.90881958 930.78089966 565.85620117 930.55737305 C594.31428462 927.03033112 621.84038013 921.22467372 649 912 C650.66168213 911.43659912 650.66168213 911.43659912 652.35693359 910.86181641 C666.85842295 905.89413336 681.03558104 900.31952752 695 894 C695.84981445 893.61763184 696.69962891 893.23526367 697.57519531 892.84130859 C732.06281024 877.21065249 764.72995918 856.44544806 793.24267578 831.48632812 C794.55712752 830.37457733 795.8988575 829.29493735 797.25341797 828.23242188 C805.40509321 821.79392329 812.69156963 814.61329448 820.00732422 807.25341797 C822.1211762 805.1288432 824.24551542 803.01517939 826.37109375 800.90234375 C833.71072582 793.56984868 840.59058847 786.16674537 847 778 C847.93401134 776.89752058 848.87543658 775.80122436 849.828125 774.71484375 C865.23916556 757.04186014 878.21103168 737.23084411 890 717 C890.34321289 716.41798828 890.68642578 715.83597656 891.04003906 715.23632812 C923.36626966 660.26641562 943.60612499 596.93538825 947.85302734 533.19140625 C947.99159691 531.12529258 948.15888493 529.06345463 948.33203125 527 C951.28407253 488.57200142 948.40589496 449.75993385 941 412 C940.79036621 410.92588867 940.58073242 409.85177734 940.36474609 408.74511719 C927.78548102 346.09088697 899.45895734 285.20737533 860 235 C859.1099796 233.8442868 858.2207014 232.68800178 857.33203125 231.53125 C852.52380053 225.30481216 847.60740442 219.2599851 842.265625 213.4765625 C841.01332317 212.10766705 839.76921271 210.7305718 838.56225586 209.3215332 C833.79508043 203.75735116 828.70183423 198.54863508 823.51196289 193.3815918 C822.06475615 191.93974779 820.62297974 190.49262884 819.18164062 189.04492188 C813.95849359 183.81763442 808.63948707 178.77616584 803 174 C801.94381157 173.08746969 800.88781112 172.17472174 799.83203125 171.26171875 C792.40252776 164.92789883 784.82134284 158.84447375 777 153 C776.35498535 152.51305664 775.7099707 152.02611328 775.04541016 151.52441406 C717.21477502 108.01073892 647.62414334 81.73934866 576.4375 70.8125 C574.95262085 70.5801062 574.95262085 70.5801062 573.43774414 70.34301758 C553.68665054 67.45449286 533.88777261 66.64873695 513.94726562 66.68432617 C510.26662495 66.68748573 506.58679236 66.66390456 502.90625 66.63867188 C486.09362388 66.59391429 469.66812569 67.84332799 453 70 Z " fill="#FEFEFE" transform="translate(0,0)"/>
<path d="M0 0 C3.74219023 0.01071005 7.4838985 0.00004151 11.22607422 -0.01269531 C31.04924776 -0.02483882 50.71445776 1.00463279 70.31591797 4.07324219 C71.43240723 4.24500977 72.54889648 4.41677734 73.69921875 4.59375 C151.80276809 16.90097596 226.04340332 48.48951249 286.87841797 99.26074219 C287.45430664 99.73753418 288.03019531 100.21432617 288.62353516 100.70556641 C307.72333453 116.52241476 326.6789134 133.61639273 341.87841797 153.26074219 C343.43693168 155.09746546 344.99971442 156.93057175 346.56591797 158.76074219 C363.68002739 179.31886743 378.0321295 201.84236834 390.87841797 225.26074219 C391.37196777 226.15599609 391.86551758 227.05125 392.37402344 227.97363281 C433.69707932 303.43897274 449.0871191 389.94236921 440.87841797 475.26074219 C440.74161621 476.69256836 440.74161621 476.69256836 440.60205078 478.15332031 C434.0375386 542.96924062 412.16886722 607.44097862 376.87841797 662.26074219 C376.39985352 663.00888184 375.92128906 663.75702148 375.42822266 664.52783203 C365.09562145 680.59195953 353.9508777 696.12531471 341.36474609 710.50341797 C340.2529953 711.81786971 339.17335532 713.15959969 338.11083984 714.51416016 C331.67234126 722.6658354 324.49171245 729.95231182 317.13183594 737.26806641 C315.00726117 739.38191839 312.89359736 741.50625761 310.78076172 743.63183594 C303.44826665 750.97146801 296.04516333 757.85133065 287.87841797 764.26074219 C286.77593854 765.19475353 285.67964233 766.13617876 284.59326172 767.08886719 C216.15471187 826.76805271 119.33588565 865.17452628 11.96655273 866.39111328 C8.58361292 866.38577014 5.2008068 866.39107665 1.81787109 866.39746094 C-17.33068664 866.40642023 -35.84824409 865.30826198 -54.80908203 862.63574219 C-56.21247833 862.43933136 -56.21247833 862.43933136 -57.64422607 862.23895264 C-83.20107062 858.62395959 -107.69758082 852.66474196 -132.12158203 844.26074219 C-133.62567627 843.75486572 -133.62567627 843.75486572 -135.16015625 843.23876953 C-174.84998116 829.85639458 -212.06303232 810.6158183 -246.12158203 786.26074219 C-247.26240234 785.44669922 -247.26240234 785.44669922 -248.42626953 784.61621094 C-259.10107361 776.96420737 -269.29634026 768.97393929 -279.12158203 760.26074219 C-280.49620037 759.07280041 -281.87113941 757.88522948 -283.24658203 756.69824219 C-284.54161204 755.5562115 -285.83298744 754.41002926 -287.12158203 753.26074219 C-287.97494141 752.50019531 -288.82830078 751.73964844 -289.70751953 750.95605469 C-295.76973082 745.47893618 -301.64582714 739.83934815 -307.43408203 734.07324219 C-308.09150391 733.4204126 -308.74892578 732.76758301 -309.42626953 732.0949707 C-313.86054119 727.64670197 -318.02491987 723.01960285 -322.12158203 718.26074219 C-323.04735698 717.21270998 -323.9743598 716.16576057 -324.90283203 715.12011719 C-333.55892727 705.26713756 -341.3641628 694.82772529 -349.12158203 684.26074219 C-350.05125954 683.00813061 -350.98094603 681.75552569 -351.91064453 680.50292969 C-392.26008196 625.63992664 -418.52484969 557.6615117 -427.12158203 490.26074219 C-427.27111328 489.13571289 -427.42064453 488.01068359 -427.57470703 486.8515625 C-430.02679369 467.63121948 -430.41003311 448.49609894 -430.43408203 429.13574219 C-430.43766724 427.97467957 -430.44125244 426.81361694 -430.44494629 425.61737061 C-430.48090033 403.97954225 -429.08592975 382.77159246 -425.37158203 361.44824219 C-425.24019836 360.68326416 -425.1088147 359.91828613 -424.97344971 359.13012695 C-412.71914217 288.02764665 -383.33295952 220.67379287 -338.12158203 164.26074219 C-337.32623047 163.25398437 -336.53087891 162.24722656 -335.71142578 161.20996094 C-330.93339801 155.25217322 -325.85868876 149.61467984 -320.66455078 144.02246094 C-318.65987129 141.8453359 -316.72033003 139.64361451 -314.80908203 137.38574219 C-307.5807768 129.05747747 -299.57328969 121.13278955 -291.15283203 114.01464844 C-289.05468789 112.20298167 -287.03269171 110.31993208 -285.01049805 108.42431641 C-278.04395462 101.91951291 -270.72045881 96.00799393 -263.12158203 90.26074219 C-262.39519531 89.7098291 -261.66880859 89.15891602 -260.92041016 88.59130859 C-229.84098409 65.11126118 -196.08163212 46.2217443 -160.12158203 31.26074219 C-159.24356934 30.8949707 -158.36555664 30.52919922 -157.4609375 30.15234375 C-127.19575123 17.71459597 -94.88903467 9.55304066 -62.62158203 4.44824219 C-61.39584473 4.25327148 -60.17010742 4.05830078 -58.90722656 3.85742188 C-39.27981453 0.91369945 -19.83886964 -0.06729427 0 0 Z M-47.12158203 29.26074219 C-47.84493744 29.34499451 -48.56829285 29.42924683 -49.31356812 29.51605225 C-89.86047991 34.34299487 -128.83376427 45.65505223 -166.12158203 62.26074219 C-166.94625977 62.62490234 -167.7709375 62.9890625 -168.62060547 63.36425781 C-205.98388865 80.00057519 -240.44120531 103.48043451 -270.60986328 130.99511719 C-272.01515345 132.26271952 -273.42696345 133.52348933 -274.86157227 134.7578125 C-280.3194662 139.45753363 -285.46952356 144.41608192 -290.55908203 149.51074219 C-291.82075195 150.77362061 -291.82075195 150.77362061 -293.10791016 152.06201172 C-298.07513723 157.07852451 -302.77243068 162.1173827 -307.10986328 167.69042969 C-308.98359459 170.08443979 -310.9405543 172.3835117 -312.93603516 174.67626953 C-363.9837876 233.58450448 -392.22640862 308.72648253 -402.12158203 385.26074219 C-402.25435547 386.24929199 -402.38712891 387.2378418 -402.52392578 388.25634766 C-406.60386191 419.80135942 -405.03059365 452.77382209 -401.12158203 484.26074219 C-400.91275391 485.97269775 -400.91275391 485.97269775 -400.69970703 487.71923828 C-389.33119179 577.57524593 -345.33254755 658.90287475 -281.93408203 722.57324219 C-281.18570068 723.32629639 -280.43731934 724.07935059 -279.66625977 724.85522461 C-274.97970478 729.52833477 -270.14901351 733.95833695 -265.12158203 738.26074219 C-264.15736328 739.10636719 -263.19314453 739.95199219 -262.19970703 740.82324219 C-224.13042643 773.63433486 -180.27519032 799.0472517 -133.12158203 816.26074219 C-131.61096191 816.8152002 -131.61096191 816.8152002 -130.06982422 817.38085938 C-102.50003987 827.36857758 -74.14444887 833.51913087 -45.12158203 837.26074219 C-43.26992432 837.50630859 -43.26992432 837.50630859 -41.38085938 837.75683594 C-7.80764031 842.0630339 26.33687915 841.57169683 59.87841797 837.26074219 C61.16796387 837.09977051 62.45750977 836.93879883 63.78613281 836.77294922 C122.17578652 829.25487507 178.36372136 808.06733018 227.87841797 776.26074219 C228.90193359 775.61105469 229.92544922 774.96136719 230.97998047 774.29199219 C244.51792218 765.49046534 257.57331432 755.71463555 269.87841797 745.26074219 C270.94861124 744.36476642 272.01893118 743.46894194 273.08935547 742.57324219 C287.60000852 730.358853 301.19695863 717.36570649 313.87841797 703.26074219 C314.68375977 702.37249756 314.68375977 702.37249756 315.50537109 701.46630859 C340.15308781 674.1756259 359.42068401 643.02382368 375.87841797 610.26074219 C376.29220703 609.44250977 376.70599609 608.62427734 377.13232422 607.78125 C422.94863744 516.56444819 428.98414255 403.87926294 396.68945312 303.64501953 C391.582525 288.46220542 385.84022911 273.68809478 378.87841797 259.26074219 C378.55164063 258.57689453 378.22486328 257.89304687 377.88818359 257.18847656 C354.62734539 208.73232882 321.30360559 161.97676571 279.87841797 127.26074219 C278.99798828 126.49117188 278.11755859 125.72160156 277.21044922 124.92871094 C263.01466006 112.58233243 247.79594255 101.28972547 231.87841797 91.26074219 C231.16878906 90.8119873 230.45916016 90.36323242 229.72802734 89.90087891 C162.49214974 47.71224462 86.06514066 26.85609084 6.99091339 26.88512802 C4.96933774 26.88573367 2.94778208 26.88321598 0.9262085 26.88052368 C-15.19222631 26.88289408 -31.10869892 27.36582235 -47.12158203 29.26074219 Z " fill="#23935C" transform="translate(506.12158203125,66.7392578125)"/>
<path d="M0 0 C20.62960808 9.94641818 29.24046455 50.4306755 36.17866516 70.14988708 C64.23813161 150.51815795 67.39764865 235.46169699 29.75390625 313.5390625 C19.39056398 334.39642316 6.0344094 353.2458855 -9.6640625 370.41796875 C-10.97828855 371.87065005 -12.28402396 373.33149476 -13.55859375 374.8190918 C-17.70822615 379.6554509 -22.07753285 384.1068652 -26.75 388.4375 C-27.4524585 389.09218262 -28.15491699 389.74686523 -28.87866211 390.42138672 C-33.50376663 394.69975398 -38.24504569 398.77312122 -43.16796875 402.70703125 C-53.83583333 411.34432299 -64.01541832 420.58716113 -74 430 C-74.67546875 430.63292969 -75.3509375 431.26585937 -76.046875 431.91796875 C-81.17756547 436.87214464 -85.58477881 442.4103597 -90 448 C-90.74507812 448.928125 -91.49015625 449.85625 -92.2578125 450.8125 C-102.94762332 464.51929576 -112.55142434 480.69922474 -114.7265625 498.23828125 C-116.38909629 511.35276012 -116.38909629 511.35276012 -120.59765625 515.65625 C-123.84031904 517.47303467 -126.93295155 518.83082147 -130.42431641 520.06884766 C-133.31034328 521.11219424 -136.12186048 522.28739061 -138.94921875 523.48046875 C-152.48733675 529.10199959 -166.29079218 533.91602811 -180.1875 538.5625 C-181.34903091 538.95205872 -181.34903091 538.95205872 -182.5340271 539.3494873 C-190.28282994 541.93843264 -197.96023852 544.4612461 -206 546 C-231.47685921 501.57276094 -234.76432301 422.48991854 -222.64794922 374.37060547 C-211.18218425 332.42163116 -182.60135956 295.51190111 -149.859375 267.640625 C-147.10840516 265.21329867 -144.57432459 262.5844399 -142.00390625 259.96875 C-140.04943548 258.04856819 -138.02686061 256.27132691 -135.9375 254.5 C-132.60461886 251.62660345 -129.73625481 248.56490105 -126.8984375 245.20703125 C-124.75308818 242.71295231 -122.50223913 240.33538866 -120.25 237.9375 C-110.28755983 226.97730406 -102.38700398 214.78801221 -95 202 C-70.85325908 160.22379386 -70.85325908 160.22379386 -49 152 C-43.12733732 150.797377 -37.14895517 151.9106269 -32 155 C-26.77423601 159.69275923 -24.06048476 164.51769843 -23.55859375 171.5625 C-22.53776617 200.590096 -37.20843527 224.64480021 -53 248 C-54.64838985 250.45662438 -56.29336 252.91552963 -57.9375 255.375 C-58.34105713 255.97836182 -58.74461426 256.58172363 -59.16040039 257.20336914 C-66.72306078 268.54810306 -74.02991758 280.0352491 -80.6875 291.9375 C-81.10966797 292.68878174 -81.53183594 293.44006348 -81.96679688 294.21411133 C-82.35287109 294.91560303 -82.73894531 295.61709473 -83.13671875 296.33984375 C-83.47405029 296.95206787 -83.81138184 297.56429199 -84.15893555 298.19506836 C-85.04968946 300.10663402 -85.55454619 301.94285973 -86 304 C-84.53821973 302.85856732 -83.08084285 301.71149597 -81.625 300.5625 C-80.81289063 299.92441406 -80.00078125 299.28632812 -79.1640625 298.62890625 C-61.21717573 283.9933764 -44.17110544 267.09026294 -31 248 C-30.36964844 247.10474609 -30.36964844 247.10474609 -29.7265625 246.19140625 C-20.34429351 232.77535919 -13.29893991 217.80593408 -9 202 C-8.70585205 200.92903076 -8.70585205 200.92903076 -8.40576172 199.83642578 C-2.85500337 178.73628225 -3.97101236 156.44614463 -7 135 C-7.14002441 133.9888916 -7.28004883 132.9777832 -7.42431641 131.93603516 C-10.08756667 113.29328331 -14.10237782 95.02230848 -18.43359375 76.70507812 C-25.63002655 46.14060631 -25.63002655 46.14060631 -25.4375 33.6875 C-25.42614014 32.58269287 -25.42614014 32.58269287 -25.41455078 31.45556641 C-25.1114912 21.26878274 -22.46780217 11.28871819 -15 4 C-10.48642309 0.27231648 -5.72967271 -1.22778701 0 0 Z " fill="#F29A26" transform="translate(799,306)"/>
<path d="M0 0 C7.76018278 3.21111011 11.93754115 9.11083556 15.375 16.625 C21.42892264 35.42807328 15.22143651 56.47222752 11 75 C10.66499886 76.47411196 10.33003876 77.94823324 9.99511719 79.42236328 C9.82525299 80.16957642 9.65538879 80.91678955 9.4803772 81.68664551 C8.60941009 85.51969905 7.74060014 89.35323074 6.875 93.1875 C6.70272888 93.94987976 6.53045776 94.71225952 6.35296631 95.4977417 C1.41452605 117.45134811 -1.70423954 139.52781145 -3 162 C-3.0520459 162.79132324 -3.1040918 163.58264648 -3.15771484 164.39794922 C-5.49493186 203.35437871 13.98646517 238.75447579 39 267 C39.46631836 267.52948242 39.93263672 268.05896484 40.41308594 268.60449219 C52.40136207 282.13964266 65.57750395 294.11090437 80 305 C71.45992104 286.75880415 60.49347569 270.17143191 49.27767944 253.49237061 C33.02929285 229.3182802 33.02929285 229.3182802 27 217 C26.5052417 216.00009033 26.5052417 216.00009033 26.00048828 214.97998047 C18.68928342 199.96711444 12.44460611 182.20053774 16.66015625 165.36328125 C19.20280887 159.5845253 24.03634978 155.67180269 29.4375 152.625 C37.95631116 150.54724118 44.42583772 152.96827538 52 157 C66.97151827 166.92348473 75.12987858 181.67345431 83.796875 196.8984375 C89.37494948 206.69396068 95.1807275 216.01824008 102 225 C102.66515625 225.87785156 103.3303125 226.75570312 104.015625 227.66015625 C111.99535412 237.89432104 121.04399627 247.1296734 130.1875 256.3125 C131.30970947 257.44171875 131.30970947 257.44171875 132.45458984 258.59375 C135.82995065 261.95943075 139.22729714 265.24521108 142.84375 268.3515625 C148.23885617 273.00531573 153.27357978 278.03051904 158.3125 283.0625 C158.82234436 283.57133728 159.33218872 284.08017456 159.85748291 284.60443115 C167.54399569 292.30121397 174.70569191 300.11194506 181 309 C181.75667969 310.03511719 182.51335937 311.07023437 183.29296875 312.13671875 C200.6454448 336.41823859 212.80532739 362.5593645 218 392 C218.18006592 393.01537842 218.18006592 393.01537842 218.36376953 394.05126953 C221.93669436 415.34504955 220.60033862 437.6685314 218 459 C217.88172852 460.01868164 217.76345703 461.03736328 217.64160156 462.08691406 C208.98543523 535.01456477 208.98543523 535.01456477 199 545 C189.96615319 544.73873191 181.65538977 541.51103465 173.1875 538.625 C172.00338531 538.22566757 172.00338531 538.22566757 170.79534912 537.81826782 C115.41892981 519.12839471 115.41892981 519.12839471 110 511 C109.53271484 509.03320313 109.53271484 509.03320313 109.2109375 506.78125 C102.67625316 465.29813516 74.74446984 434.0021897 42.94140625 408.40234375 C25.02269031 393.76753591 7.27497107 378.26188113 -7 360 C-8.00899557 358.74339401 -9.01811822 357.48689006 -10.02734375 356.23046875 C-18.37561794 345.71066364 -25.36011767 334.65973322 -32 323 C-32.71349012 321.78252187 -33.42702685 320.56507106 -34.140625 319.34765625 C-63.61099462 267.05571991 -72.78512398 199.90336442 -63 141 C-62.83371094 139.96294922 -62.66742188 138.92589844 -62.49609375 137.85742188 C-59.69990585 120.80067568 -55.23270444 104.45564292 -50 88 C-49.69755371 87.02450195 -49.39510742 86.04900391 -49.08349609 85.04394531 C-27.85881491 16.67023466 -27.85881491 16.67023466 -10 1 C-6.76924603 -0.61537699 -3.50242951 -0.43859825 0 0 Z " fill="#F29A26" transform="translate(233,306)"/>
<path d="M0 0 C2.29918926 0.01607995 4.59661542 0.00004919 6.89575195 -0.01904297 C34.67330277 -0.06056203 60.6058669 9.53360586 80.90161133 28.79736328 C104.44898318 53.67760524 107.08639401 85.00264088 106.36645508 117.39111328 C105.75222249 135.85221504 99.3711685 154.38240054 90.45092773 170.43554688 C89.31867868 172.47726567 88.22224879 174.53574493 87.12817383 176.59814453 C82.60004742 185.03482837 77.67575308 193.15494114 72.49145508 201.20361328 C58.83553069 222.44595628 46.552229 243.45001014 41.36645508 268.39111328 C41.15375977 269.30505859 40.94106445 270.21900391 40.72192383 271.16064453 C38.81367198 280.09785285 38.72492976 289.28774306 38.36645508 298.39111328 C23.75293866 284.54887997 19.75475582 256.42081633 19.16333008 237.41845703 C18.98888511 226.0762221 19.67498685 215.42130415 22.36645508 204.39111328 C22.53322754 203.69953125 22.7 203.00794922 22.87182617 202.29541016 C26.3984481 188.26579705 31.9327809 174.88174435 37.34033203 161.49536133 C42.28406808 149.16987552 46.73578852 136.79277762 47.36645508 123.39111328 C47.06094727 124.44685547 46.75543945 125.50259766 46.44067383 126.59033203 C41.56106616 142.66617374 33.70821098 156.90128002 25.11645508 171.26611328 C2.01430395 209.89305439 4.65790599 244.65008668 10.79956055 287.40625 C17.6111759 336.49818987 11.29843326 389.91329871 -18.35620117 430.87158203 C-18.77772461 431.37302734 -19.19924805 431.87447266 -19.63354492 432.39111328 C-19.96354492 432.39111328 -20.29354492 432.39111328 -20.63354492 432.39111328 C-20.61259766 431.16408691 -20.59165039 429.93706055 -20.57006836 428.67285156 C-19.8292987 394.80568059 -19.8292987 394.80568059 -24.63354492 361.39111328 C-24.86428711 360.38918945 -25.0950293 359.38726563 -25.33276367 358.35498047 C-34.98083981 317.88666109 -55.26485823 279.72500125 -75.50854492 243.64111328 C-95.63417311 207.64365492 -115.40917106 168.55216103 -116.63354492 126.39111328 C-116.66424072 125.37017578 -116.66424072 125.37017578 -116.69555664 124.32861328 C-117.57183504 90.49412849 -109.3433001 59.78951897 -85.78173828 34.56445312 C-63.69314892 11.65351801 -31.46649766 -0.26057828 0 0 Z " fill="#24945D" transform="translate(517.633544921875,350.60888671875)"/>
<path d="M0 0 C2.42179661 2.2281305 4.72545473 4.54514696 7.0234375 6.90161133 C7.76078125 7.62993164 8.498125 8.35825195 9.2578125 9.10864258 C25.52820023 26.10426077 30.72737443 48.29832115 30.33984375 71.15161133 C29.50309266 92.40999058 19.47787981 110.79956856 5.0234375 125.90161133 C4.16105469 126.85874023 4.16105469 126.85874023 3.28125 127.83520508 C-10.45898311 142.59445069 -32.19691155 149.9380891 -51.87890625 151.13989258 C-75.67158673 151.78769132 -97.51345789 143.12083558 -114.9765625 126.90161133 C-131.70323148 110.10057618 -140.39412988 88.41603547 -140.3515625 64.71411133 C-140.29704125 41.42225588 -131.67505392 21.43926335 -115.65625 4.49536133 C-84.57039537 -25.59357085 -33.17686044 -29.02464561 0 0 Z " fill="#24945E" transform="translate(566.9765625,180.098388671875)"/>
<path d="M0 0 C0.66 0.33 1.32 0.66 2 1 C1.21496094 1.7734375 0.42992187 2.546875 -0.37890625 3.34375 C-5.64079792 8.55369306 -10.83181088 13.71426656 -15.5 19.4765625 C-17.18846401 21.19140876 -18.84005551 21.97480094 -21 23 C-16.85220343 17.11759921 -12.27349454 12.0187844 -7.125 7 C-6.43664062 6.32066406 -5.74828125 5.64132812 -5.0390625 4.94140625 C-3.36392154 3.28953114 -1.6842664 1.64256075 0 0 Z " fill="#EF890F" transform="translate(639,583)"/>
<path d="M0 0 C-0.33 0.99 -0.66 1.98 -1 3 C-2.7290774 3.02725341 -4.45828176 3.04650987 -6.1875 3.0625 C-7.63189453 3.07990234 -7.63189453 3.07990234 -9.10546875 3.09765625 C-11.85576513 3.00486622 -14.32479591 2.62111685 -17 2 C-17 1.67 -17 1.34 -17 1 C-11.29309366 0.00749455 -5.78591511 -0.10477512 0 0 Z " fill="#2D9865" transform="translate(541,930)"/>
<path d="M0 0 C3 1 3 1 4.75 3.9375 C5.36875 5.4534375 5.36875 5.4534375 6 7 C5.67 7.66 5.34 8.32 5 9 C2.36 7.02 -0.28 5.04 -3 3 C-2.01 2.67 -1.02 2.34 0 2 C0 1.34 0 0.68 0 0 Z " fill="#FDF4E6" transform="translate(308,603)"/>
<path d="M0 0 C0.66 0.33 1.32 0.66 2 1 C1.67 5.29 1.34 9.58 1 14 C-1 12 -1 12 -1.23046875 9.6875 C-1.21628906 8.800625 -1.20210938 7.91375 -1.1875 7 C-1.18105469 6.113125 -1.17460937 5.22625 -1.16796875 4.3125 C-1 2 -1 2 0 0 Z " fill="#1E8C54" transform="translate(404,439)"/>
<path d="M0 0 C0 3.77910478 -0.99703962 4.46106101 -3.5 7.1875 C-4.1496875 7.90292969 -4.799375 8.61835937 -5.46875 9.35546875 C-5.9740625 9.89816406 -6.479375 10.44085937 -7 11 C-7.99 10.67 -8.98 10.34 -10 10 C-6.7 6.7 -3.4 3.4 0 0 Z " fill="#F0901E" transform="translate(680,543)"/>
<path d="M0 0 C0.33 0.66 0.66 1.32 1 2 C-0.109375 4.4609375 -0.109375 4.4609375 -1.75 7.375 C-2.28109375 8.33148438 -2.8121875 9.28796875 -3.359375 10.2734375 C-4.78704196 12.64608402 -6.28977953 14.82616554 -8 17 C-7.400327 12.89223994 -6.0282733 9.85798616 -4 6.25 C-3.195625 4.80367188 -3.195625 4.80367188 -2.375 3.328125 C-1 1 -1 1 0 0 Z " fill="#108245" transform="translate(419,402)"/>
<path d="M0 0 C0.33 0.66 0.66 1.32 1 2 C-1.64458379 3.32229189 -3.67761301 3.09677194 -6.625 3.0625 C-7.62789062 3.05347656 -8.63078125 3.04445313 -9.6640625 3.03515625 C-10.43492187 3.02355469 -11.20578125 3.01195312 -12 3 C-7.82744729 -0.58050131 -5.33135955 -0.26656798 0 0 Z " fill="#2E9867" transform="translate(542,906)"/>
<path d="M0 0 C0.66 0.66 1.32 1.32 2 2 C-0.64 4.64 -3.28 7.28 -6 10 C-6.66 9.67 -7.32 9.34 -8 9 C-5.36 6.03 -2.72 3.06 0 0 Z " fill="#F08F1A" transform="translate(626,596)"/>
<path d="M0 0 C1.62463842 -0.05395478 3.24978541 -0.09277195 4.875 -0.125 C5.77992188 -0.14820312 6.68484375 -0.17140625 7.6171875 -0.1953125 C10 0 10 0 12 2 C9.19084526 3.40457737 7.11189466 3.24895157 4 3 C1.8046875 1.484375 1.8046875 1.484375 0 0 Z " fill="#329B68" transform="translate(539,92)"/>
<path d="M0 0 C0 3 0 3 -2.5 5.6875 C-3.325 6.450625 -4.15 7.21375 -5 8 C-5.66 7.67 -6.32 7.34 -7 7 C-4.69 4.69 -2.38 2.38 0 0 Z " fill="#108343" transform="translate(807,783)"/>
<path d="M0 0 C0.99 0.33 1.98 0.66 3 1 C3 3.64 3 6.28 3 9 C1.5 7.875 1.5 7.875 0 6 C-0.1875 2.8125 -0.1875 2.8125 0 0 Z " fill="#309865" transform="translate(621,436)"/>
<path d="M0 0 C0.125 3.375 0.125 3.375 0 7 C-0.66 7.66 -1.32 8.32 -2 9 C-3.35439668 6.29120665 -3.06501451 3.99066732 -3 1 C-1 0 -1 0 0 0 Z " fill="#2F9966" transform="translate(80,456)"/>
</svg>
